# Blender v2.76 (sub 0) OBJ File: ''
# www.blender.org
o Cylinder
v 0.396535 -0.000020 -0.320947
v 0.396535 1.999980 -0.320947
v 0.591626 -0.000020 -0.301732
v 0.591626 1.999980 -0.301732
v 0.779219 -0.000020 -0.244826
v 0.779219 1.999980 -0.244826
v 0.952106 -0.000020 -0.152416
v 0.952106 1.999980 -0.152416
v 1.103642 -0.000020 -0.028053
v 1.103642 1.999980 -0.028053
v 1.228005 -0.000020 0.123483
v 1.228005 1.999980 0.123483
v 1.320415 -0.000020 0.296370
v 1.320415 1.999980 0.296370
v 1.377321 -0.000020 0.483963
v 1.377321 1.999980 0.483963
v 1.396535 -0.000020 0.679053
v 1.396535 1.999980 0.679053
v 1.377321 -0.000020 0.874144
v 1.377321 1.999980 0.874144
v 1.320415 -0.000020 1.061737
v 1.320415 1.999980 1.061737
v 1.228005 -0.000020 1.234624
v 1.228005 1.999980 1.234624
v 1.103642 -0.000020 1.386160
v 1.103642 1.999980 1.386160
v 0.952105 -0.000020 1.510523
v 0.952105 1.999980 1.510523
v 0.779219 -0.000020 1.602933
v 0.779219 1.999980 1.602933
v 0.591625 -0.000020 1.659839
v 0.591625 1.999980 1.659839
v 0.396535 -0.000020 1.679053
v 0.396535 1.999980 1.679053
v 0.201445 -0.000020 1.659839
v 0.201445 1.999980 1.659839
v 0.013851 -0.000020 1.602933
v 0.013851 1.999980 1.602933
v -0.159035 -0.000020 1.510523
v -0.159035 1.999980 1.510523
v -0.310572 -0.000020 1.386160
v -0.310572 1.999980 1.386160
v -0.434935 -0.000020 1.234623
v -0.434935 1.999980 1.234623
v -0.527345 -0.000020 1.061736
v -0.527345 1.999980 1.061736
v -0.584250 -0.000020 0.874143
v -0.584250 1.999980 0.874143
v -0.603465 -0.000020 0.679052
v -0.603465 1.999980 0.679052
v -0.584250 -0.000020 0.483962
v -0.584250 1.999980 0.483962
v -0.527344 -0.000020 0.296369
v -0.527344 1.999980 0.296369
v -0.434934 -0.000020 0.123482
v -0.434934 1.999980 0.123482
v -0.310571 -0.000020 -0.028054
v -0.310571 1.999980 -0.028054
v -0.159034 -0.000020 -0.152417
v -0.159034 1.999980 -0.152417
v 0.013853 -0.000020 -0.244827
v 0.013853 1.999980 -0.244827
v 0.201446 -0.000020 -0.301732
v 0.201446 1.999980 -0.301732
vn 0.098000 0.000000 -0.995200
vn 0.290300 0.000000 -0.956900
vn 0.471400 0.000000 -0.881900
vn 0.634400 0.000000 -0.773000
vn 0.773000 0.000000 -0.634400
vn 0.881900 0.000000 -0.471400
vn 0.956900 0.000000 -0.290300
vn 0.995200 0.000000 -0.098000
vn 0.995200 0.000000 0.098000
vn 0.956900 0.000000 0.290300
vn 0.881900 0.000000 0.471400
vn 0.773000 0.000000 0.634400
vn 0.634400 0.000000 0.773000
vn 0.471400 0.000000 0.881900
vn 0.290300 0.000000 0.956900
vn 0.098000 0.000000 0.995200
vn -0.098000 0.000000 0.995200
vn -0.290300 0.000000 0.956900
vn -0.471400 0.000000 0.881900
vn -0.634400 0.000000 0.773000
vn -0.773000 0.000000 0.634400
vn -0.881900 0.000000 0.471400
vn -0.956900 0.000000 0.290300
vn -0.995200 0.000000 0.098000
vn -0.995200 0.000000 -0.098000
vn -0.956900 0.000000 -0.290300
vn -0.881900 0.000000 -0.471400
vn -0.773000 0.000000 -0.634400
vn -0.634400 0.000000 -0.773000
vn -0.471400 0.000000 -0.881900
vn 0.000000 1.000000 0.000000
vn -0.098000 0.000000 -0.995200
vn -0.290300 0.000000 -0.956900
vn 0.000000 -1.000000 0.000000

vt 0.500000 0.500000

s off
f 2/1/1 4/1/1 3/1/1
f 4/1/2 6/1/2 5/1/2
f 6/1/3 8/1/3 7/1/3
f 8/1/4 10/1/4 9/1/4
f 10/1/5 12/1/5 11/1/5
f 12/1/6 14/1/6 13/1/6
f 14/1/7 16/1/7 15/1/7
f 16/1/8 18/1/8 17/1/8
f 18/1/9 20/1/9 19/1/9
f 20/1/10 22/1/10 21/1/10
f 22/1/11 24/1/11 23/1/11
f 24/1/12 26/1/12 25/1/12
f 26/1/13 28/1/13 27/1/13
f 28/1/14 30/1/14 29/1/14
f 30/1/15 32/1/15 31/1/15
f 32/1/16 34/1/16 33/1/16
f 34/1/17 36/1/17 35/1/17
f 36/1/18 38/1/18 37/1/18
f 38/1/19 40/1/19 39/1/19
f 40/1/20 42/1/20 41/1/20
f 42/1/21 44/1/21 43/1/21
f 44/1/22 46/1/22 45/1/22
f 46/1/23 48/1/23 47/1/23
f 48/1/24 50/1/24 49/1/24
f 50/1/25 52/1/25 51/1/25
f 52/1/26 54/1/26 53/1/26
f 54/1/27 56/1/27 55/1/27
f 56/1/28 58/1/28 57/1/28
f 58/1/29 60/1/29 59/1/29
f 60/1/30 62/1/30 61/1/30
f 38/1/31 22/1/31 6/1/31
f 64/1/32 2/1/32 1/1/32
f 62/1/33 64/1/33 63/1/33
f 31/1/34 47/1/34 63/1/34
f 1/1/1 2/1/1 3/1/1
f 3/1/2 4/1/2 5/1/2
f 5/1/3 6/1/3 7/1/3
f 7/1/4 8/1/4 9/1/4
f 9/1/5 10/1/5 11/1/5
f 11/1/6 12/1/6 13/1/6
f 13/1/7 14/1/7 15/1/7
f 15/1/8 16/1/8 17/1/8
f 17/1/9 18/1/9 19/1/9
f 19/1/10 20/1/10 21/1/10
f 21/1/11 22/1/11 23/1/11
f 23/1/12 24/1/12 25/1/12
f 25/1/13 26/1/13 27/1/13
f 27/1/14 28/1/14 29/1/14
f 29/1/15 30/1/15 31/1/15
f 31/1/16 32/1/16 33/1/16
f 33/1/17 34/1/17 35/1/17
f 35/1/18 36/1/18 37/1/18
f 37/1/19 38/1/19 39/1/19
f 39/1/20 40/1/20 41/1/20
f 41/1/21 42/1/21 43/1/21
f 43/1/22 44/1/22 45/1/22
f 45/1/23 46/1/23 47/1/23
f 47/1/24 48/1/24 49/1/24
f 49/1/25 50/1/25 51/1/25
f 51/1/26 52/1/26 53/1/26
f 53/1/27 54/1/27 55/1/27
f 55/1/28 56/1/28 57/1/28
f 57/1/29 58/1/29 59/1/29
f 59/1/30 60/1/30 61/1/30
f 6/1/31 4/1/31 62/1/31
f 2/1/31 64/1/31 62/1/31
f 62/1/31 60/1/31 58/1/31
f 58/1/31 56/1/31 54/1/31
f 54/1/31 52/1/31 50/1/31
f 50/1/31 48/1/31 54/1/31
f 46/1/31 44/1/31 38/1/31
f 42/1/31 40/1/31 38/1/31
f 38/1/31 36/1/31 34/1/31
f 34/1/31 32/1/31 30/1/31
f 30/1/31 28/1/31 26/1/31
f 26/1/31 24/1/31 22/1/31
f 22/1/31 20/1/31 14/1/31
f 18/1/31 16/1/31 14/1/31
f 14/1/31 12/1/31 10/1/31
f 10/1/31 8/1/31 6/1/31
f 4/1/31 2/1/31 62/1/31
f 62/1/31 58/1/31 6/1/31
f 54/1/31 48/1/31 46/1/31
f 44/1/31 42/1/31 38/1/31
f 38/1/31 34/1/31 22/1/31
f 30/1/31 26/1/31 22/1/31
f 20/1/31 18/1/31 14/1/31
f 14/1/31 10/1/31 6/1/31
f 6/1/31 58/1/31 54/1/31
f 54/1/31 46/1/31 38/1/31
f 34/1/31 30/1/31 22/1/31
f 22/1/31 14/1/31 6/1/31
f 6/1/31 54/1/31 38/1/31
f 63/1/32 64/1/32 1/1/32
f 61/1/33 62/1/33 63/1/33
f 63/1/34 1/1/34 3/1/34
f 3/1/34 5/1/34 7/1/34
f 7/1/34 9/1/34 15/1/34
f 11/1/34 13/1/34 15/1/34
f 15/1/34 17/1/34 19/1/34
f 19/1/34 21/1/34 15/1/34
f 23/1/34 25/1/34 31/1/34
f 27/1/34 29/1/34 31/1/34
f 31/1/34 33/1/34 39/1/34
f 35/1/34 37/1/34 39/1/34
f 39/1/34 41/1/34 43/1/34
f 43/1/34 45/1/34 47/1/34
f 47/1/34 49/1/34 51/1/34
f 51/1/34 53/1/34 55/1/34
f 55/1/34 57/1/34 63/1/34
f 59/1/34 61/1/34 63/1/34
f 63/1/34 3/1/34 15/1/34
f 9/1/34 11/1/34 15/1/34
f 15/1/34 21/1/34 23/1/34
f 25/1/34 27/1/34 31/1/34
f 33/1/34 35/1/34 39/1/34
f 39/1/34 43/1/34 47/1/34
f 47/1/34 51/1/34 63/1/34
f 57/1/34 59/1/34 63/1/34
f 3/1/34 7/1/34 15/1/34
f 15/1/34 23/1/34 31/1/34
f 31/1/34 39/1/34 47/1/34
f 51/1/34 55/1/34 63/1/34
f 63/1/34 15/1/34 31/1/34
